<?xml version="1.0" standalone="no"?>
<!DOCTYPE svg PUBLIC "-//W3C//DTD SVG 20010904//EN"
 "http://www.w3.org/TR/2001/REC-SVG-20010904/DTD/svg10.dtd">
<svg version="1.0" xmlns="http://www.w3.org/2000/svg"
 width="400.000000pt" height="400.000000pt" viewBox="0 0 400.000000 400.000000"
 preserveAspectRatio="xMidYMid meet">
<metadata>
Created by potrace 1.11, written by Peter Selinger 2001-2013
</metadata>
<g transform="translate(0.000000,400.000000) scale(0.100000,-0.100000)"
fill="#000000" stroke="none">
<path d="M1735 3984 c-389 -55 -743 -213 -1027 -457 -367 -315 -585 -697 -684
-1197 -23 -118 -28 -458 -8 -600 97 -694 548 -1289 1187 -1565 165 -71 309
-113 527 -150 79 -14 426 -14 525 0 388 54 723 198 1009 435 377 311 609 704
706 1195 29 142 36 466 14 624 -30 220 -111 474 -211 661 -40 75 -175 286
-192 300 -3 3 -31 34 -61 70 -85 99 -121 135 -273 267 -40 35 -221 154 -298
196 -197 109 -472 196 -719 226 -106 13 -388 10 -495 -5z"/>
</g>
</svg>
